<?xml version="1.0" standalone="no"?>
<!DOCTYPE svg PUBLIC "-//W3C//DTD SVG 20010904//EN"
 "http://www.w3.org/TR/2001/REC-SVG-20010904/DTD/svg10.dtd">
<svg version="1.0" xmlns="http://www.w3.org/2000/svg"
 width="700.000000pt" height="700.000000pt" viewBox="0 0 700.000000 700.000000"
 preserveAspectRatio="xMidYMid meet">
<metadata>
Created by potrace 1.11, written by Peter Selinger 2001-2013
</metadata>
<g transform="translate(0.000000,700.000000) scale(0.100000,-0.100000)"
fill="#000000" stroke="none">
<path d="M3261 6690 c-393 -31 -797 -133 -1151 -290 -52 -23 -96 -43 -98 -45
-2 -2 32 -1 76 2 70 5 86 3 134 -19 56 -26 113 -76 183 -161 68 -82 118 -90
354 -56 190 28 503 23 676 -10 316 -60 542 -153 810 -332 252 -168 489 -386
956 -878 398 -420 511 -484 996 -566 297 -50 439 -88 568 -152 39 -20 85 -46
103 -60 17 -13 32 -20 32 -16 0 4 -14 53 -30 107 -255 845 -814 1555 -1585
2011 -393 233 -880 394 -1355 450 -164 19 -514 27 -669 15z"/>
<path d="M1404 5978 c-198 -149 -485 -430 -638 -628 -343 -442 -577 -950 -680
-1480 -63 -325 -60 -221 -63 -1895 -2 -841 -1 -1541 2 -1553 3 -13 18 -35 32
-48 l26 -24 496 1 c464 0 494 1 461 16 -176 82 -187 88 -251 152 -57 57 -70
77 -87 131 -43 142 -37 267 23 446 101 303 341 640 727 1020 411 405 807 709
1383 1062 99 61 226 139 282 173 112 69 203 142 203 165 0 43 -166 -14 -440
-151 -593 -295 -1275 -739 -1743 -1134 -63 -52 -91 -70 -97 -61 -4 6 -10 37
-14 68 -11 90 -64 352 -116 572 -95 397 -129 585 -151 824 -15 160 -6 502 16
641 62 390 216 710 491 1018 100 111 141 168 155 218 11 34 9 50 -14 127 -47
155 -34 255 44 353 17 21 29 39 26 39 -2 0 -35 -23 -73 -52z"/>
<path d="M5870 3443 c-489 -49 -1339 -374 -2195 -838 -1031 -559 -1898 -1286
-2027 -1698 -37 -121 2 -187 135 -229 67 -21 90 -23 312 -22 211 0 260 3 403
27 658 108 1309 336 1902 667 605 338 1069 665 1404 990 357 347 528 636 514
868 -8 138 -61 199 -194 227 -64 14 -168 17 -254 8z m-2125 -1077 c56 -126 77
-291 56 -434 -54 -369 -316 -649 -689 -738 -100 -24 -285 -22 -387 5 -134 36
-302 127 -372 203 l-23 24 128 116 c304 277 674 544 1069 768 87 49 165 94
173 99 8 6 16 10 18 10 2 1 14 -23 27 -53z"/>
<path d="M6981 3380 c-21 -72 -135 -285 -216 -405 -127 -190 -281 -372 -489
-580 -551 -551 -1199 -990 -2161 -1465 -495 -244 -900 -394 -1375 -511 -113
-27 -218 -54 -235 -58 -17 -5 952 -9 2198 -10 2422 -1 2279 -4 2292 52 3 12 4
697 3 1522 -3 1281 -5 1493 -17 1455z"/>
</g>
</svg>
